<svg id="visual" viewBox="0 0 1850 150" width="1850" height="150" xmlns="http://www.w3.org/2000/svg" xmlns:xlink="http://www.w3.org/1999/xlink" version="1.1"><rect x="0" y="0" width="1850" height="150" fill="#8763e3"></rect><path d="M0 53L19.3 44.7C38.7 36.3 77.3 19.7 115.8 13.8C154.3 8 192.7 13 231.2 22.5C269.7 32 308.3 46 347 44C385.7 42 424.3 24 462.8 18.8C501.3 13.7 539.7 21.3 578.2 32.3C616.7 43.3 655.3 57.7 693.8 54.5C732.3 51.3 770.7 30.7 809.2 28.7C847.7 26.7 886.3 43.3 925 53.3C963.7 63.3 1002.3 66.7 1040.8 60.7C1079.3 54.7 1117.7 39.3 1156.2 30.7C1194.7 22 1233.3 20 1272 31.3C1310.7 42.7 1349.3 67.3 1387.8 78.7C1426.3 90 1464.7 88 1503.2 77.7C1541.7 67.3 1580.3 48.7 1618.8 44.5C1657.3 40.3 1695.7 50.7 1734.2 59.5C1772.7 68.3 1811.3 75.7 1830.7 79.3L1850 83L1850 151L1830.7 151C1811.3 151 1772.7 151 1734.2 151C1695.7 151 1657.3 151 1618.8 151C1580.3 151 1541.7 151 1503.2 151C1464.7 151 1426.3 151 1387.8 151C1349.3 151 1310.7 151 1272 151C1233.3 151 1194.7 151 1156.2 151C1117.7 151 1079.3 151 1040.8 151C1002.3 151 963.7 151 925 151C886.3 151 847.7 151 809.2 151C770.7 151 732.3 151 693.8 151C655.3 151 616.7 151 578.2 151C539.7 151 501.3 151 462.8 151C424.3 151 385.7 151 347 151C308.3 151 269.7 151 231.2 151C192.7 151 154.3 151 115.8 151C77.3 151 38.7 151 19.3 151L0 151Z" fill="#9372e5"></path><path d="M0 95L19.3 96.2C38.7 97.3 77.3 99.7 115.8 99.2C154.3 98.7 192.7 95.3 231.2 92.5C269.7 89.7 308.3 87.3 347 84.5C385.7 81.7 424.3 78.3 462.8 82.3C501.3 86.3 539.7 97.7 578.2 94.8C616.7 92 655.3 75 693.8 67.3C732.3 59.7 770.7 61.3 809.2 56.8C847.7 52.3 886.3 41.7 925 46.5C963.7 51.3 1002.3 71.7 1040.8 80.3C1079.3 89 1117.7 86 1156.2 85C1194.7 84 1233.3 85 1272 86.2C1310.7 87.3 1349.3 88.7 1387.8 87C1426.3 85.3 1464.7 80.7 1503.2 70.3C1541.7 60 1580.3 44 1618.8 43.8C1657.3 43.7 1695.7 59.3 1734.2 69.3C1772.7 79.3 1811.3 83.7 1830.7 85.8L1850 88L1850 151L1830.7 151C1811.3 151 1772.7 151 1734.2 151C1695.7 151 1657.3 151 1618.8 151C1580.3 151 1541.7 151 1503.2 151C1464.7 151 1426.3 151 1387.8 151C1349.3 151 1310.7 151 1272 151C1233.3 151 1194.7 151 1156.2 151C1117.7 151 1079.3 151 1040.8 151C1002.3 151 963.7 151 925 151C886.3 151 847.7 151 809.2 151C770.7 151 732.3 151 693.8 151C655.3 151 616.7 151 578.2 151C539.7 151 501.3 151 462.8 151C424.3 151 385.7 151 347 151C308.3 151 269.7 151 231.2 151C192.7 151 154.3 151 115.8 151C77.3 151 38.7 151 19.3 151L0 151Z" fill="#ab8deb"></path><path d="M0 93L19.3 92.8C38.7 92.7 77.3 92.3 115.8 84.3C154.3 76.3 192.7 60.7 231.2 62.8C269.7 65 308.3 85 347 95.8C385.7 106.7 424.3 108.3 462.8 100.5C501.3 92.7 539.7 75.3 578.2 75.2C616.7 75 655.3 92 693.8 91.2C732.3 90.3 770.7 71.7 809.2 72.2C847.7 72.7 886.3 92.3 925 93.8C963.7 95.3 1002.3 78.7 1040.8 79.5C1079.3 80.3 1117.7 98.7 1156.2 102.2C1194.7 105.7 1233.3 94.3 1272 89.7C1310.7 85 1349.3 87 1387.8 87.3C1426.3 87.7 1464.7 86.3 1503.2 81.7C1541.7 77 1580.3 69 1618.8 66.5C1657.3 64 1695.7 67 1734.2 67.2C1772.7 67.3 1811.3 64.7 1830.7 63.3L1850 62L1850 151L1830.7 151C1811.3 151 1772.7 151 1734.2 151C1695.7 151 1657.3 151 1618.8 151C1580.3 151 1541.7 151 1503.2 151C1464.7 151 1426.3 151 1387.8 151C1349.3 151 1310.7 151 1272 151C1233.3 151 1194.7 151 1156.2 151C1117.7 151 1079.3 151 1040.8 151C1002.3 151 963.7 151 925 151C886.3 151 847.7 151 809.2 151C770.7 151 732.3 151 693.8 151C655.3 151 616.7 151 578.2 151C539.7 151 501.3 151 462.8 151C424.3 151 385.7 151 347 151C308.3 151 269.7 151 231.2 151C192.7 151 154.3 151 115.8 151C77.3 151 38.7 151 19.3 151L0 151Z" fill="#c1a9f0"></path><path d="M0 123L19.3 113.8C38.7 104.7 77.3 86.3 115.8 86.3C154.3 86.3 192.7 104.7 231.2 104.2C269.7 103.7 308.3 84.3 347 74.7C385.7 65 424.3 65 462.8 71.3C501.3 77.7 539.7 90.3 578.2 100.3C616.7 110.3 655.3 117.7 693.8 122.2C732.3 126.7 770.7 128.3 809.2 127.5C847.7 126.7 886.3 123.3 925 117.8C963.7 112.3 1002.3 104.7 1040.8 96.5C1079.3 88.3 1117.7 79.7 1156.2 76.3C1194.7 73 1233.3 75 1272 83.7C1310.7 92.3 1349.3 107.7 1387.8 106.3C1426.3 105 1464.7 87 1503.2 81.2C1541.7 75.3 1580.3 81.7 1618.8 91.2C1657.3 100.7 1695.7 113.3 1734.2 119.3C1772.7 125.3 1811.3 124.7 1830.7 124.3L1850 124L1850 151L1830.7 151C1811.3 151 1772.7 151 1734.2 151C1695.7 151 1657.3 151 1618.8 151C1580.3 151 1541.7 151 1503.2 151C1464.7 151 1426.3 151 1387.8 151C1349.3 151 1310.7 151 1272 151C1233.3 151 1194.7 151 1156.2 151C1117.7 151 1079.3 151 1040.8 151C1002.3 151 963.7 151 925 151C886.3 151 847.7 151 809.2 151C770.7 151 732.3 151 693.8 151C655.3 151 616.7 151 578.2 151C539.7 151 501.3 151 462.8 151C424.3 151 385.7 151 347 151C308.3 151 269.7 151 231.2 151C192.7 151 154.3 151 115.8 151C77.3 151 38.7 151 19.3 151L0 151Z" fill="#d7c5f6"></path><path d="M0 88L19.3 93.7C38.7 99.3 77.3 110.7 115.8 114.3C154.3 118 192.7 114 231.2 112.3C269.7 110.7 308.3 111.3 347 110.8C385.7 110.3 424.3 108.7 462.8 110.8C501.3 113 539.7 119 578.2 119C616.7 119 655.3 113 693.8 114.2C732.3 115.3 770.7 123.7 809.2 122.8C847.7 122 886.3 112 925 104.7C963.7 97.3 1002.3 92.7 1040.8 95C1079.3 97.3 1117.7 106.7 1156.2 107.8C1194.7 109 1233.3 102 1272 98.7C1310.7 95.3 1349.3 95.7 1387.8 95C1426.3 94.3 1464.7 92.7 1503.2 97.7C1541.7 102.7 1580.3 114.3 1618.8 119.3C1657.3 124.3 1695.7 122.7 1734.2 122C1772.7 121.3 1811.3 121.7 1830.7 121.8L1850 122L1850 151L1830.7 151C1811.3 151 1772.7 151 1734.2 151C1695.7 151 1657.3 151 1618.8 151C1580.3 151 1541.7 151 1503.2 151C1464.7 151 1426.3 151 1387.8 151C1349.3 151 1310.7 151 1272 151C1233.3 151 1194.7 151 1156.2 151C1117.7 151 1079.3 151 1040.8 151C1002.3 151 963.7 151 925 151C886.3 151 847.7 151 809.2 151C770.7 151 732.3 151 693.8 151C655.3 151 616.7 151 578.2 151C539.7 151 501.3 151 462.8 151C424.3 151 385.7 151 347 151C308.3 151 269.7 151 231.2 151C192.7 151 154.3 151 115.8 151C77.3 151 38.7 151 19.3 151L0 151Z" fill="#ebe2fa"></path><path d="M0 148L19.3 145C38.7 142 77.3 136 115.8 135.3C154.3 134.7 192.7 139.3 231.2 141C269.7 142.7 308.3 141.3 347 140.8C385.7 140.3 424.3 140.7 462.8 139.3C501.3 138 539.7 135 578.2 134.5C616.7 134 655.3 136 693.8 136.3C732.3 136.7 770.7 135.3 809.2 130.3C847.7 125.3 886.3 116.7 925 114.3C963.7 112 1002.3 116 1040.8 117C1079.3 118 1117.7 116 1156.2 114.8C1194.7 113.7 1233.3 113.3 1272 113C1310.7 112.7 1349.3 112.3 1387.8 113.5C1426.3 114.7 1464.7 117.3 1503.2 121.8C1541.7 126.3 1580.3 132.7 1618.8 136.2C1657.3 139.7 1695.7 140.3 1734.2 137.2C1772.7 134 1811.3 127 1830.7 123.5L1850 120L1850 151L1830.7 151C1811.3 151 1772.7 151 1734.2 151C1695.7 151 1657.3 151 1618.8 151C1580.3 151 1541.7 151 1503.2 151C1464.7 151 1426.3 151 1387.8 151C1349.3 151 1310.7 151 1272 151C1233.3 151 1194.7 151 1156.2 151C1117.7 151 1079.3 151 1040.8 151C1002.3 151 963.7 151 925 151C886.3 151 847.7 151 809.2 151C770.7 151 732.3 151 693.8 151C655.3 151 616.7 151 578.2 151C539.7 151 501.3 151 462.8 151C424.3 151 385.7 151 347 151C308.3 151 269.7 151 231.2 151C192.7 151 154.3 151 115.8 151C77.3 151 38.7 151 19.3 151L0 151Z" fill="#ffffff"></path></svg>