<svg id="visual" viewBox="0 0 960 200" width="960" height="200" xmlns="http://www.w3.org/2000/svg" xmlns:xlink="http://www.w3.org/1999/xlink" version="1.1"><path d="M0 128L22.8 131.8C45.7 135.7 91.3 143.3 137 147.5C182.7 151.7 228.3 152.3 274 149.8C319.7 147.3 365.3 141.7 411.2 134.5C457 127.3 503 118.7 548.8 118.5C594.7 118.3 640.3 126.7 686 137.3C731.7 148 777.3 161 823 156.7C868.7 152.3 914.3 130.7 937.2 119.8L960 109L960 201L937.2 201C914.3 201 868.7 201 823 201C777.3 201 731.7 201 686 201C640.3 201 594.7 201 548.8 201C503 201 457 201 411.2 201C365.3 201 319.7 201 274 201C228.3 201 182.7 201 137 201C91.3 201 45.7 201 22.8 201L0 201Z" fill="#8763e3" stroke-linecap="round" stroke-linejoin="miter"></path></svg>