<svg id="visual" viewBox="0 0 960 200" width="960" height="200" xmlns="http://www.w3.org/2000/svg" xmlns:xlink="http://www.w3.org/1999/xlink" version="1.1"><path d="M0 69L22.8 70C45.7 71 91.3 73 137 66C182.7 59 228.3 43 274 36.8C319.7 30.7 365.3 34.3 411.2 38.5C457 42.7 503 47.3 548.8 49.2C594.7 51 640.3 50 686 55.8C731.7 61.7 777.3 74.3 823 82.7C868.7 91 914.3 95 937.2 97L960 99L960 0L937.2 0C914.3 0 868.7 0 823 0C777.3 0 731.7 0 686 0C640.3 0 594.7 0 548.8 0C503 0 457 0 411.2 0C365.3 0 319.7 0 274 0C228.3 0 182.7 0 137 0C91.3 0 45.7 0 22.8 0L0 0Z" fill="#8763e3" stroke-linecap="round" stroke-linejoin="miter"></path></svg>