<svg id="visual" viewBox="0 0 960 200" width="960" height="200" xmlns="http://www.w3.org/2000/svg" xmlns:xlink="http://www.w3.org/1999/xlink" version="1.1"><path d="M0 83L22.8 73.5C45.7 64 91.3 45 137 47.5C182.7 50 228.3 74 274 90.8C319.7 107.7 365.3 117.3 411.2 119.8C457 122.3 503 117.7 548.8 104.2C594.7 90.7 640.3 68.3 686 65.7C731.7 63 777.3 80 823 92.3C868.7 104.7 914.3 112.3 937.2 116.2L960 120L960 0L937.2 0C914.3 0 868.7 0 823 0C777.3 0 731.7 0 686 0C640.3 0 594.7 0 548.8 0C503 0 457 0 411.2 0C365.3 0 319.7 0 274 0C228.3 0 182.7 0 137 0C91.3 0 45.7 0 22.8 0L0 0Z" fill="#8763e3" stroke-linecap="round" stroke-linejoin="miter"></path></svg>